# xmcd
#
# Track frame offsets:
#	150
#	24100
#	51163
#	91538
#	109169
#	133039
#	161674
#	182069
#	198159
#	222097
#	246713
#	262346
#	284253
#	297215
#	319095
#	335037
#
# Disc length: 4605 seconds
#
# Revision: 1
# Processed by: cddbd v1.5.2PL0 Copyright (c) Steve Scherf et al.
# Submitted via: audiograbber 1.83.01
#
DISCID=f211fb10
DTITLE=B.B. King - Ladies and Gentlemen.... Mr. B.B. King [CD 09) - Blues Man (19
DTITLE=93-1999)
DYEAR=2012
DGENRE=Blues
TTITLE0=Playin' With My Friends
TTITLE1=There's Something On Your Mind
TTITLE2=I Gotta Move Out Of This Neighbourhood/Nobody Loves Me But My Mother
TTITLE3=You Don't Know Me
TTITLE4=Stormy Monday Blues
TTITLE5=Rock Me Baby [live]
TTITLE6=Confessin' The Blues
TTITLE7=Paying The Cost To Be The Boss
TTITLE8=Blues Man
TTITLE9=Bad Case Of Love
TTITLE10=Blues Boys Tune
TTITLE11=I'll Survive
TTITLE12=Ain't Nobody Here But Us Chickens
TTITLE13=I'm Gonna Move To The Outskirts Of Town
TTITLE14=Ain't That Just Like A Woman
TTITLE15=Caldonia
EXTD=
EXTT0=
EXTT1=
EXTT2=
EXTT3=
EXTT4=
EXTT5=
EXTT6=
EXTT7=
EXTT8=
EXTT9=
EXTT10=
EXTT11=
EXTT12=
EXTT13=
EXTT14=
EXTT15=
PLAYORDER=
